#N canvas -8 -8 1366 681 10;
#X obj 545 186 unpack 0 0;
#X obj 602 245 / 127;
#X floatatom 602 268 5 0 0 0 - - - 0 0, f 5;
#X obj 690 407 vline~;
#X obj 602 328 pack f f f f;
#X floatatom 665 160 5 0 0 0 - - - 0 0, f 5;
#X floatatom 713 160 5 0 0 0 - - - 0 0, f 5;
#X msg 602 357 \$1 \$2 \, \$4 \$3 \$2;
#X floatatom 759 160 5 0 0 0 - - - 0 0, f 5;
#X text 676 187 A;
#X text 772 187 S;
#X text 726 187 D;
#X obj 545 219 stripnote, f 10;
#X obj 764 246 sel 0;
#X obj 764 327 pack f f;
#X floatatom 809 160 5 0 0 0 - - - 0 0, f 5;
#X text 820 187 R;
#X msg 764 358 0 \$2;
#X obj 545 87 inlet;
#X obj 690 443 outlet~;
#X text 507 165 Pitch;
#X obj 696 87 inlet;
#X text 611 165 Vel;
#X obj 696 121 unpack 0 0 0 0;
#X text 696 66 Packed ADSR;
#X text 546 66 Packed Pitch & Vel;
#X connect 0 0 12 0;
#X connect 0 1 13 0;
#X connect 0 1 12 1;
#X connect 1 0 2 0;
#X connect 2 0 4 0;
#X connect 3 0 19 0;
#X connect 4 0 7 0;
#X connect 5 0 4 1;
#X connect 6 0 4 2;
#X connect 7 0 3 0;
#X connect 8 0 4 3;
#X connect 12 1 1 0;
#X connect 13 0 14 0;
#X connect 14 0 17 0;
#X connect 15 0 14 1;
#X connect 17 0 3 0;
#X connect 18 0 0 0;
#X connect 21 0 23 0;
#X connect 23 0 5 0;
#X connect 23 1 6 0;
#X connect 23 2 8 0;
#X connect 23 3 15 0;
