#N canvas -8 -8 1366 681 10;
#X obj 440 193 *~;
#X obj 256 152 line~;
#X obj 299 193 *~;
#X obj 256 93 pack 0 10;
#X obj 440 321 outlet~;
#X obj 106 -108 inlet~;
#X obj 256 -108 inlet;
#X obj 355 -180 block~ 1;
#X obj 356 122 line;
#X obj 356 93 pack 0 10;
#X text 355 -204 Sub 1 ms delay;
#X text 107 -137 Dry Signal;
#X obj 356 -8 mtof;
#X obj 356 23 expr 1000/$f1;
#X floatatom 356 63 5 0 0 0 - - - 0 0, f 5;
#X floatatom 256 63 5 0 0 0 - - - 0 0, f 5;
#X obj 356 -58 unpack 0 0;
#X text 318 -37 Pitch;
#X obj 531 -108 inlet;
#X text 598 150 Wet Gain Envelope;
#X text 430 -37 Vel;
#X obj 576 -108 inlet;
#X obj 531 152 Envelope;
#X text 256 -137 Feedback;
#X text 496 -140 Pitch & Vel;
#X text 577 -140 ADSR;
#X obj 299 252 lop~;
#X obj 320 221 receive damp;
#X obj 106 293 delwrite~ \$0-delayBuffer 1000;
#X obj 356 152 delread~ \$0-delayBuffer;
#X text 108 321 \$0 makes the delay buffer unique for each instance
of the abstraction;
#X text 333 252 Damping;
#X text 648 -110 Inputs;
#X text 267 -248 Inputs: Dry Signal \, Feedback \, Pitch and Velocity
\, Envelope;
#X connect 0 0 4 0;
#X connect 1 0 2 1;
#X connect 2 0 26 0;
#X connect 3 0 1 0;
#X connect 5 0 28 0;
#X connect 6 0 15 0;
#X connect 8 0 29 0;
#X connect 9 0 8 0;
#X connect 12 0 13 0;
#X connect 13 0 14 0;
#X connect 14 0 9 0;
#X connect 15 0 3 0;
#X connect 16 0 12 0;
#X connect 18 0 16 0;
#X connect 18 0 22 0;
#X connect 21 0 22 1;
#X connect 22 0 0 1;
#X connect 26 0 28 0;
#X connect 27 0 26 1;
#X connect 29 0 2 0;
#X connect 29 0 0 0;
